<mxfile host="app.diagrams.net" modified="2023-06-12T08:52:16.721Z" agent="Mozilla/5.0 (Windows NT 10.0; Win64; x64) AppleWebKit/537.36 (KHTML, like Gecko) Chrome/114.0.0.0 Safari/537.36" etag="fwA9NKip0svS97_gTEbc" version="21.3.8" type="device">
  <diagram name="Page-1" id="hML4VPuGb0XIvmqMOA6E">
    <mxGraphModel dx="700" dy="1486" grid="1" gridSize="10" guides="1" tooltips="1" connect="1" arrows="1" fold="1" page="1" pageScale="1" pageWidth="850" pageHeight="1100" math="0" shadow="0">
      <root>
        <mxCell id="0" />
        <mxCell id="1" parent="0" />
        <mxCell id="1P9gHZw41DvnJjrTFkDb-3" style="edgeStyle=orthogonalEdgeStyle;rounded=0;orthogonalLoop=1;jettySize=auto;html=1;entryX=0.5;entryY=0;entryDx=0;entryDy=0;" parent="1" source="6fa3rH_UvGOGUlaae7Xy-1" target="1P9gHZw41DvnJjrTFkDb-1" edge="1">
          <mxGeometry relative="1" as="geometry" />
        </mxCell>
        <mxCell id="6fa3rH_UvGOGUlaae7Xy-1" value="Start" style="ellipse;whiteSpace=wrap;html=1;" parent="1" vertex="1">
          <mxGeometry x="302.5" y="-160" width="120" height="60" as="geometry" />
        </mxCell>
        <mxCell id="6fa3rH_UvGOGUlaae7Xy-30" style="edgeStyle=orthogonalEdgeStyle;rounded=0;orthogonalLoop=1;jettySize=auto;html=1;entryX=0.5;entryY=0;entryDx=0;entryDy=0;" parent="1" source="6fa3rH_UvGOGUlaae7Xy-4" target="6fa3rH_UvGOGUlaae7Xy-5" edge="1">
          <mxGeometry relative="1" as="geometry" />
        </mxCell>
        <mxCell id="6fa3rH_UvGOGUlaae7Xy-4" value="Green LED turns on then turns off after its given&lt;span style=&quot;white-space: pre;&quot;&gt; &lt;/span&gt;duration" style="rounded=0;whiteSpace=wrap;html=1;" parent="1" vertex="1">
          <mxGeometry x="302.5" y="100" width="120" height="60" as="geometry" />
        </mxCell>
        <mxCell id="6fa3rH_UvGOGUlaae7Xy-33" style="edgeStyle=orthogonalEdgeStyle;rounded=0;orthogonalLoop=1;jettySize=auto;html=1;entryX=0.5;entryY=0;entryDx=0;entryDy=0;" parent="1" source="6fa3rH_UvGOGUlaae7Xy-5" target="6fa3rH_UvGOGUlaae7Xy-6" edge="1">
          <mxGeometry relative="1" as="geometry" />
        </mxCell>
        <mxCell id="6fa3rH_UvGOGUlaae7Xy-5" value="Yellow LED turns on then turns off after its given duration" style="rounded=0;whiteSpace=wrap;html=1;" parent="1" vertex="1">
          <mxGeometry x="302.5" y="190" width="120" height="60" as="geometry" />
        </mxCell>
        <mxCell id="6fa3rH_UvGOGUlaae7Xy-12" value="" style="edgeStyle=orthogonalEdgeStyle;rounded=0;orthogonalLoop=1;jettySize=auto;html=1;" parent="1" source="6fa3rH_UvGOGUlaae7Xy-6" target="6fa3rH_UvGOGUlaae7Xy-11" edge="1">
          <mxGeometry relative="1" as="geometry" />
        </mxCell>
        <mxCell id="6fa3rH_UvGOGUlaae7Xy-6" value="Red LED turns on and begins its timer. Hardware is allowed to accept input from PIR sensor" style="rounded=0;whiteSpace=wrap;html=1;" parent="1" vertex="1">
          <mxGeometry x="298" y="280" width="127.5" height="80" as="geometry" />
        </mxCell>
        <mxCell id="6fa3rH_UvGOGUlaae7Xy-14" value="" style="edgeStyle=orthogonalEdgeStyle;rounded=0;orthogonalLoop=1;jettySize=auto;html=1;" parent="1" source="6fa3rH_UvGOGUlaae7Xy-11" target="6fa3rH_UvGOGUlaae7Xy-13" edge="1">
          <mxGeometry relative="1" as="geometry" />
        </mxCell>
        <mxCell id="6fa3rH_UvGOGUlaae7Xy-20" value="" style="edgeStyle=orthogonalEdgeStyle;rounded=0;orthogonalLoop=1;jettySize=auto;html=1;" parent="1" source="6fa3rH_UvGOGUlaae7Xy-11" target="6fa3rH_UvGOGUlaae7Xy-19" edge="1">
          <mxGeometry relative="1" as="geometry" />
        </mxCell>
        <mxCell id="6fa3rH_UvGOGUlaae7Xy-11" value="Is movement detected?" style="rhombus;whiteSpace=wrap;html=1;rounded=0;" parent="1" vertex="1">
          <mxGeometry x="305" y="425" width="115" height="105" as="geometry" />
        </mxCell>
        <mxCell id="RPbS4VBan_pOAzZXqhBr-2" value="" style="edgeStyle=orthogonalEdgeStyle;rounded=0;orthogonalLoop=1;jettySize=auto;html=1;" parent="1" source="6fa3rH_UvGOGUlaae7Xy-13" target="RPbS4VBan_pOAzZXqhBr-1" edge="1">
          <mxGeometry relative="1" as="geometry" />
        </mxCell>
        <mxCell id="6fa3rH_UvGOGUlaae7Xy-13" value="Hardware sends a signal: &quot;1 BTR&quot; to the Recording System to save the video via MQTT" style="whiteSpace=wrap;html=1;rounded=0;" parent="1" vertex="1">
          <mxGeometry x="293.75" y="590" width="137.5" height="70" as="geometry" />
        </mxCell>
        <mxCell id="6fa3rH_UvGOGUlaae7Xy-15" value="Yes" style="text;html=1;align=center;verticalAlign=middle;resizable=0;points=[];autosize=1;strokeColor=none;fillColor=none;" parent="1" vertex="1">
          <mxGeometry x="320" y="530" width="40" height="30" as="geometry" />
        </mxCell>
        <mxCell id="6fa3rH_UvGOGUlaae7Xy-22" style="edgeStyle=orthogonalEdgeStyle;rounded=0;orthogonalLoop=1;jettySize=auto;html=1;exitX=0.5;exitY=0;exitDx=0;exitDy=0;endArrow=classic;endFill=1;" parent="1" source="6fa3rH_UvGOGUlaae7Xy-19" edge="1">
          <mxGeometry relative="1" as="geometry">
            <mxPoint x="360" y="380" as="targetPoint" />
            <Array as="points">
              <mxPoint x="560" y="380" />
            </Array>
          </mxGeometry>
        </mxCell>
        <mxCell id="6fa3rH_UvGOGUlaae7Xy-25" value="" style="edgeStyle=orthogonalEdgeStyle;rounded=0;orthogonalLoop=1;jettySize=auto;html=1;" parent="1" source="6fa3rH_UvGOGUlaae7Xy-19" target="6fa3rH_UvGOGUlaae7Xy-24" edge="1">
          <mxGeometry relative="1" as="geometry" />
        </mxCell>
        <mxCell id="6fa3rH_UvGOGUlaae7Xy-19" value="Still within &lt;br&gt;Red LED &lt;br&gt;timer?" style="rhombus;whiteSpace=wrap;html=1;rounded=0;" parent="1" vertex="1">
          <mxGeometry x="502.5" y="425" width="115" height="105" as="geometry" />
        </mxCell>
        <mxCell id="6fa3rH_UvGOGUlaae7Xy-21" value="No" style="text;html=1;align=center;verticalAlign=middle;resizable=0;points=[];autosize=1;strokeColor=none;fillColor=none;" parent="1" vertex="1">
          <mxGeometry x="410" y="440" width="40" height="30" as="geometry" />
        </mxCell>
        <mxCell id="6fa3rH_UvGOGUlaae7Xy-23" value="Yes" style="text;html=1;align=center;verticalAlign=middle;resizable=0;points=[];autosize=1;strokeColor=none;fillColor=none;" parent="1" vertex="1">
          <mxGeometry x="562.5" y="390" width="40" height="30" as="geometry" />
        </mxCell>
        <mxCell id="6fa3rH_UvGOGUlaae7Xy-26" style="edgeStyle=orthogonalEdgeStyle;rounded=0;orthogonalLoop=1;jettySize=auto;html=1;entryX=1;entryY=0.5;entryDx=0;entryDy=0;exitX=1;exitY=0.5;exitDx=0;exitDy=0;" parent="1" source="6fa3rH_UvGOGUlaae7Xy-24" target="6fa3rH_UvGOGUlaae7Xy-4" edge="1">
          <mxGeometry relative="1" as="geometry">
            <mxPoint x="450" y="140" as="targetPoint" />
            <Array as="points">
              <mxPoint x="660" y="620" />
              <mxPoint x="660" y="130" />
            </Array>
          </mxGeometry>
        </mxCell>
        <mxCell id="yTmjmnK4851kwpCjc-eX-2" style="edgeStyle=orthogonalEdgeStyle;rounded=0;orthogonalLoop=1;jettySize=auto;html=1;entryX=0.5;entryY=0;entryDx=0;entryDy=0;" edge="1" parent="1" source="6fa3rH_UvGOGUlaae7Xy-24" target="RPbS4VBan_pOAzZXqhBr-1">
          <mxGeometry relative="1" as="geometry">
            <mxPoint x="360" y="720" as="targetPoint" />
            <Array as="points">
              <mxPoint x="560" y="695" />
              <mxPoint x="363" y="695" />
            </Array>
          </mxGeometry>
        </mxCell>
        <mxCell id="6fa3rH_UvGOGUlaae7Xy-24" value="Turn off Red LED" style="rounded=0;whiteSpace=wrap;html=1;" parent="1" vertex="1">
          <mxGeometry x="500" y="590" width="120" height="60" as="geometry" />
        </mxCell>
        <mxCell id="6fa3rH_UvGOGUlaae7Xy-36" value="No" style="text;html=1;align=center;verticalAlign=middle;resizable=0;points=[];autosize=1;strokeColor=none;fillColor=none;" parent="1" vertex="1">
          <mxGeometry x="562.5" y="525" width="40" height="30" as="geometry" />
        </mxCell>
        <mxCell id="RPbS4VBan_pOAzZXqhBr-3" style="edgeStyle=orthogonalEdgeStyle;rounded=0;orthogonalLoop=1;jettySize=auto;html=1;" parent="1" source="RPbS4VBan_pOAzZXqhBr-1" edge="1">
          <mxGeometry relative="1" as="geometry">
            <mxPoint x="460" y="480" as="targetPoint" />
          </mxGeometry>
        </mxCell>
        <mxCell id="RPbS4VBan_pOAzZXqhBr-5" style="edgeStyle=orthogonalEdgeStyle;rounded=0;orthogonalLoop=1;jettySize=auto;html=1;" parent="1" source="RPbS4VBan_pOAzZXqhBr-1" edge="1">
          <mxGeometry relative="1" as="geometry">
            <mxPoint x="362.5" y="860" as="targetPoint" />
          </mxGeometry>
        </mxCell>
        <mxCell id="RPbS4VBan_pOAzZXqhBr-1" value="Turn off hardware?" style="rhombus;whiteSpace=wrap;html=1;rounded=0;" parent="1" vertex="1">
          <mxGeometry x="303.75" y="720" width="117.5" height="110" as="geometry" />
        </mxCell>
        <mxCell id="RPbS4VBan_pOAzZXqhBr-4" value="No" style="text;html=1;align=center;verticalAlign=middle;resizable=0;points=[];autosize=1;strokeColor=none;fillColor=none;" parent="1" vertex="1">
          <mxGeometry x="425" y="740" width="40" height="30" as="geometry" />
        </mxCell>
        <mxCell id="RPbS4VBan_pOAzZXqhBr-6" value="End" style="ellipse;whiteSpace=wrap;html=1;" parent="1" vertex="1">
          <mxGeometry x="302.5" y="860" width="120" height="60" as="geometry" />
        </mxCell>
        <mxCell id="RPbS4VBan_pOAzZXqhBr-7" value="Yes" style="text;html=1;align=center;verticalAlign=middle;resizable=0;points=[];autosize=1;strokeColor=none;fillColor=none;" parent="1" vertex="1">
          <mxGeometry x="320" y="820" width="40" height="30" as="geometry" />
        </mxCell>
        <mxCell id="1P9gHZw41DvnJjrTFkDb-4" style="edgeStyle=orthogonalEdgeStyle;rounded=0;orthogonalLoop=1;jettySize=auto;html=1;" parent="1" source="1P9gHZw41DvnJjrTFkDb-1" target="1P9gHZw41DvnJjrTFkDb-2" edge="1">
          <mxGeometry relative="1" as="geometry" />
        </mxCell>
        <mxCell id="1P9gHZw41DvnJjrTFkDb-1" value="Turn on Beating the Red Light Hardware" style="whiteSpace=wrap;html=1;" parent="1" vertex="1">
          <mxGeometry x="302.5" y="-70" width="120" height="60" as="geometry" />
        </mxCell>
        <mxCell id="1P9gHZw41DvnJjrTFkDb-5" style="edgeStyle=orthogonalEdgeStyle;rounded=0;orthogonalLoop=1;jettySize=auto;html=1;exitX=0.5;exitY=1;exitDx=0;exitDy=0;entryX=0.5;entryY=0;entryDx=0;entryDy=0;" parent="1" source="1P9gHZw41DvnJjrTFkDb-2" target="6fa3rH_UvGOGUlaae7Xy-4" edge="1">
          <mxGeometry relative="1" as="geometry" />
        </mxCell>
        <mxCell id="1P9gHZw41DvnJjrTFkDb-2" value="Hardware connects to WiFi network and subscribes to &quot;BTR&quot; MQTT topic" style="whiteSpace=wrap;html=1;" parent="1" vertex="1">
          <mxGeometry x="302.5" y="16" width="120" height="60" as="geometry" />
        </mxCell>
      </root>
    </mxGraphModel>
  </diagram>
</mxfile>
